<svg id="Layer_5" data-name="Layer 5" xmlns="http://www.w3.org/2000/svg" viewBox="0 0 62.02 62.02"><defs><style>.cls-1{fill:#41b649;}.cls-2{fill:#fff;}</style></defs><title>blog</title><path class="cls-1" d="M238.59,206.21a31,31,0,1,1-31-31A31,31,0,0,1,238.59,206.21Z" transform="translate(-176.57 -175.2)"/><path class="cls-2" d="M209.41,204.6a1.46,1.46,0,1,0,1.46,1.46A1.45,1.45,0,0,0,209.41,204.6Z" transform="translate(-176.57 -175.2)"/><path class="cls-2" d="M217.38,204.71a1.35,1.35,0,1,0,1.35,1.35A1.35,1.35,0,0,0,217.38,204.71Z" transform="translate(-176.57 -175.2)"/><path class="cls-2" d="M218.66,193.18H195.88a6.08,6.08,0,0,0-6.07,6.08v11.8a6.07,6.07,0,0,0,6.07,6.07h8.56l2.83,5.58,3.2-5.58h8.19a6.07,6.07,0,0,0,6.07-6.07v-11.8A6.08,6.08,0,0,0,218.66,193.18Zm-21.31,16.14a3.38,3.38,0,0,1-1.7-.46v.42h-2.27V200h2.27v3.06a3.29,3.29,0,0,1,1.7-.47,3.35,3.35,0,0,1,0,6.7Zm7.1-6.16v6.16h-2.19v-6.16c0-1.34-.84-1.34-.84-1.34V200a2.73,2.73,0,0,1,2.91,2.23,4.22,4.22,0,0,1,.12.88Zm5,6.43a3.54,3.54,0,1,1,3.54-3.53A3.54,3.54,0,0,1,209.41,209.59Zm7.64,2.91v-1.78s2,.23,2-.89v-1a3.28,3.28,0,1,1,0-5.65V203h2.12v6.88S221.61,212.5,217.05,212.5Z" transform="translate(-176.57 -175.2)"/><path class="cls-2" d="M197.11,204.61a1.36,1.36,0,1,0,1.36,1.36A1.36,1.36,0,0,0,197.11,204.61Z" transform="translate(-176.57 -175.2)"/></svg>