<svg id="Layer_6" data-name="Layer 6" xmlns="http://www.w3.org/2000/svg" viewBox="0 0 62.02 62.02"><defs><style>.cls-1{fill:#ed1f23;}.cls-2{fill:#fff;}</style></defs><title>youtube</title><circle class="cls-1" cx="207.58" cy="206.21" r="31.01" transform="translate(-206.06 202.5) rotate(-80.69)"/><path class="cls-2" d="M224.28,200.64a5,5,0,0,0-5-5s-4.54-.43-11-.43-11.46.43-11.46.43a5,5,0,0,0-5,5s-.22,2.78-.22,6.13.22,6,.22,6a5,5,0,0,0,5,5s6.36.43,11.14.43,11.35-.43,11.35-.43a5,5,0,0,0,5-5s.21-2.65.21-6S224.28,200.64,224.28,200.64Zm-18.93,11v-10l8.22,4.86Z" transform="translate(-176.57 -175.2)"/></svg>