<svg id="Layer_2" data-name="Layer 2" xmlns="http://www.w3.org/2000/svg" viewBox="0 0 62.02 62.02"><defs><style>.cls-1{fill:#3b599a;}.cls-2{fill:#f7f8f8;}</style></defs><title>facebook</title><path class="cls-1" d="M359,182.26a31,31,0,1,1-31-31A31,31,0,0,1,359,182.26Z" transform="translate(-296.99 -151.26)"/><path class="cls-2" d="M334.81,165v5.44h-3a1.83,1.83,0,0,0-1.73.72,3.35,3.35,0,0,0-.28,1.64v2.49h5.05l-.6,5.48h-4.45v15.81h-6.52V180.77h-3.2v-5.48h3.2V172c0-3.36,1.16-5.52,3.44-6.44a8,8,0,0,1,3.08-.56Z" transform="translate(-296.99 -151.26)"/></svg>