<svg id="Layer_4" data-name="Layer 4" xmlns="http://www.w3.org/2000/svg" xmlns:xlink="http://www.w3.org/1999/xlink" viewBox="0 0 62.02 62.02"><defs><style>.cls-1{fill:url(#linear-gradient);}.cls-2{fill:#fff;}</style><linearGradient id="linear-gradient" x1="185.76" y1="228.02" x2="227.45" y2="186.33" gradientUnits="userSpaceOnUse"><stop offset="0.03" stop-color="#fcb214"/><stop offset="0.19" stop-color="#f46232"/><stop offset="0.3" stop-color="#ef2f45"/><stop offset="0.35" stop-color="#ed1b4c"/><stop offset="0.71" stop-color="#8f2685"/><stop offset="1" stop-color="#5757a2"/></linearGradient></defs><title>instagram</title><path class="cls-1" d="M238.59,206.21a31,31,0,1,1-31-31A31,31,0,0,1,238.59,206.21Z" transform="translate(-176.57 -175.2)"/><path class="cls-2" d="M215.12,223.22H200a9.84,9.84,0,0,1-9.84-9.83V198.73a9.85,9.85,0,0,1,9.84-9.84h15.08a9.85,9.85,0,0,1,9.84,9.84v14.66A9.85,9.85,0,0,1,215.12,223.22ZM200,192.07a6.67,6.67,0,0,0-6.66,6.66v14.66A6.66,6.66,0,0,0,200,220h15.08a6.66,6.66,0,0,0,6.66-6.65V198.73a6.67,6.67,0,0,0-6.66-6.66Z" transform="translate(-176.57 -175.2)"/><path class="cls-2" d="M207.58,215.07a9,9,0,1,1,9-9A9,9,0,0,1,207.58,215.07Zm0-14.84a5.83,5.83,0,1,0,5.83,5.83A5.83,5.83,0,0,0,207.58,200.23Z" transform="translate(-176.57 -175.2)"/><path class="cls-2" d="M219,196.87a2.12,2.12,0,1,1-2.12-2.12A2.11,2.11,0,0,1,219,196.87Z" transform="translate(-176.57 -175.2)"/></svg>